<svg version="1.1" viewBox="0.0 0.0 591.0 447.0" fill="none" stroke="none" stroke-linecap="square" stroke-miterlimit="10" width="591" height="447" xmlns:xlink="http://www.w3.org/1999/xlink" xmlns="http://www.w3.org/2000/svg"><path fill="#ffffff" d="M0 0L591.0 0L591.0 447.0L0 447.0L0 0Z" fill-rule="nonzero"/><path stroke="#333333" stroke-width="1.0" stroke-linecap="butt" d="M73.5 369.5L567.5 369.5" fill-rule="nonzero"/><path stroke="#cccccc" stroke-width="1.0" stroke-linecap="butt" d="M73.5 294.5L567.5 294.5" fill-rule="nonzero"/><path stroke="#cccccc" stroke-width="1.0" stroke-linecap="butt" d="M73.5 219.5L567.5 219.5" fill-rule="nonzero"/><path stroke="#cccccc" stroke-width="1.0" stroke-linecap="butt" d="M73.5 144.5L567.5 144.5" fill-rule="nonzero"/><path stroke="#cccccc" stroke-width="1.0" stroke-linecap="butt" d="M73.5 70.5L567.5 70.5" fill-rule="nonzero"/><clipPath id="id_0"><path d="M73.49321 70.163185L567.4194 70.163185L567.4194 369.5L73.49321 369.5L73.49321 70.163185Z" clip-rule="nonzero"/></clipPath><path stroke="#000000" stroke-width="0.0" stroke-linecap="butt" stroke-opacity="0.0" clip-path="url(#id_0)" d="M166.0 370.0L106.0 370.0L106.0 119.0C106.0 117.89543 106.89543 117.0 108.0 117.0L164.0 117.0C165.10457 117.0 166.0 117.89543 166.0 119.0Z" fill-rule="nonzero"/><path fill="#b6d7a8" clip-path="url(#id_0)" d="M166.0 370.0L106.0 370.0L106.0 119.0C106.0 117.89543 106.89543 117.0 108.0 117.0L164.0 117.0C165.10457 117.0 166.0 117.89543 166.0 119.0Z" fill-rule="nonzero"/><path stroke="#000000" stroke-width="0.0" stroke-linecap="butt" stroke-opacity="0.0" clip-path="url(#id_0)" d="M258.0 370.0L198.0 370.0L198.0 136.0C198.0 134.89543 198.89543 134.0 200.0 134.0L256.0 134.0C257.10458 134.0 258.0 134.89543 258.0 136.0Z" fill-rule="nonzero"/><path fill="#b6d7a8" clip-path="url(#id_0)" d="M258.0 370.0L198.0 370.0L198.0 136.0C198.0 134.89543 198.89543 134.0 200.0 134.0L256.0 134.0C257.10458 134.0 258.0 134.89543 258.0 136.0Z" fill-rule="nonzero"/><path stroke="#000000" stroke-width="0.0" stroke-linecap="butt" stroke-opacity="0.0" clip-path="url(#id_0)" d="M350.0 370.0L290.0 370.0L290.0 169.0C290.0 167.89543 290.89542 167.0 292.0 167.0L348.0 167.0C349.10458 167.0 350.0 167.89543 350.0 169.0Z" fill-rule="nonzero"/><path fill="#b6d7a8" clip-path="url(#id_0)" d="M350.0 370.0L290.0 370.0L290.0 169.0C290.0 167.89543 290.89542 167.0 292.0 167.0L348.0 167.0C349.10458 167.0 350.0 167.89543 350.0 169.0Z" fill-rule="nonzero"/><path stroke="#000000" stroke-width="0.0" stroke-linecap="butt" stroke-opacity="0.0" clip-path="url(#id_0)" d="M443.0 370.0L383.0 370.0L383.0 178.0C383.0 176.89543 383.89542 176.0 385.0 176.0L441.0 176.0C442.10458 176.0 443.0 176.89543 443.0 178.0Z" fill-rule="nonzero"/><path fill="#b6d7a8" clip-path="url(#id_0)" d="M443.0 370.0L383.0 370.0L383.0 178.0C383.0 176.89543 383.89542 176.0 385.0 176.0L441.0 176.0C442.10458 176.0 443.0 176.89543 443.0 178.0Z" fill-rule="nonzero"/><path stroke="#000000" stroke-width="0.0" stroke-linecap="butt" stroke-opacity="0.0" clip-path="url(#id_0)" d="M535.0 370.0L475.0 370.0L475.0 192.0C475.0 190.89543 475.89542 190.0 477.0 190.0L533.0 190.0C534.10455 190.0 535.0 190.89543 535.0 192.0Z" fill-rule="nonzero"/><path fill="#b6d7a8" clip-path="url(#id_0)" d="M535.0 370.0L475.0 370.0L475.0 192.0C475.0 190.89543 475.89542 190.0 477.0 190.0L533.0 190.0C534.10455 190.0 535.0 190.89543 535.0 192.0Z" fill-rule="nonzero"/><path fill="#757575" d="M66.55571 370.35938Q66.55571 372.26562 65.89946 373.20312Q65.258835 374.125 63.868214 374.125Q62.50884 374.125 61.85259 373.21875Q61.19634 372.3125 61.16509 370.5L61.16509 369.0625Q61.16509 367.17188 61.805714 366.26562Q62.461964 365.34375 63.85259 365.34375Q65.227585 365.34375 65.883835 366.23438Q66.540085 367.10938 66.55571 368.95312L66.55571 370.35938ZM65.46196 368.875Q65.46196 367.5 65.071335 366.875Q64.696335 366.23438 63.85259 366.23438Q63.024464 366.23438 62.63384 366.875Q62.25884 367.5 62.25884 368.79688L62.25884 370.53125Q62.25884 371.90625 62.649464 372.57812Q63.055714 373.23438 63.868214 373.23438Q64.665085 373.23438 65.05571 372.60938Q65.446335 371.98438 65.46196 370.65625L65.46196 368.875Z" fill-rule="nonzero"/><path fill="#757575" d="M33.69634 294.88455L34.13384 290.63455L38.50884 290.63455L38.50884 291.63455L35.055714 291.63455L34.79009 293.96268Q35.430714 293.58768 36.22759 293.58768Q37.38384 293.58768 38.07134 294.36893Q38.75884 295.13455 38.75884 296.44705Q38.75884 297.75955 38.04009 298.52518Q37.336964 299.2908 36.055714 299.2908Q34.930714 299.2908 34.211964 298.6658Q33.493214 298.02518 33.399464 296.9158L34.41509 296.9158Q34.524464 297.65018 34.94634 298.02518Q35.368214 298.40018 36.055714 298.40018Q36.805714 298.40018 37.243214 297.88455Q37.680714 297.36893 37.680714 296.46268Q37.680714 295.6033 37.211964 295.08768Q36.743214 294.57205 35.961964 294.57205Q35.25884 294.57205 34.85259 294.86893L34.57134 295.1033L33.69634 294.88455ZM45.555714 295.52518Q45.555714 297.43143 44.899464 298.36893Q44.25884 299.2908 42.868214 299.2908Q41.50884 299.2908 40.85259 298.38455Q40.19634 297.4783 40.16509 295.6658L40.16509 294.2283Q40.16509 292.33768 40.805714 291.43143Q41.461964 290.50955 42.85259 290.50955Q44.22759 290.50955 44.88384 291.40018Q45.54009 292.27518 45.555714 294.11893L45.555714 295.52518ZM44.461964 294.0408Q44.461964 292.6658 44.07134 292.0408Q43.69634 291.40018 42.85259 291.40018Q42.024464 291.40018 41.63384 292.0408Q41.25884 292.6658 41.25884 293.96268L41.25884 295.69705Q41.25884 297.07205 41.649464 297.74393Q42.055714 298.40018 42.868214 298.40018Q43.66509 298.40018 44.055714 297.77518Q44.44634 297.15018 44.461964 295.82205L44.461964 294.0408ZM52.555714 295.52518Q52.555714 297.43143 51.899464 298.36893Q51.25884 299.2908 49.868214 299.2908Q48.50884 299.2908 47.85259 298.38455Q47.19634 297.4783 47.16509 295.6658L47.16509 294.2283Q47.16509 292.33768 47.805714 291.43143Q48.461964 290.50955 49.85259 290.50955Q51.22759 290.50955 51.88384 291.40018Q52.54009 292.27518 52.555714 294.11893L52.555714 295.52518ZM51.461964 294.0408Q51.461964 292.6658 51.07134 292.0408Q50.69634 291.40018 49.85259 291.40018Q49.024464 291.40018 48.63384 292.0408Q48.25884 292.6658 48.25884 293.96268L48.25884 295.69705Q48.25884 297.07205 48.649464 297.74393Q49.055714 298.40018 49.868214 298.40018Q50.66509 298.40018 51.055714 297.77518Q51.44634 297.15018 51.461964 295.82205L51.461964 294.0408ZM59.555714 295.52518Q59.555714 297.43143 58.899464 298.36893Q58.25884 299.2908 56.868214 299.2908Q55.50884 299.2908 54.85259 298.38455Q54.19634 297.4783 54.16509 295.6658L54.16509 294.2283Q54.16509 292.33768 54.805714 291.43143Q55.461964 290.50955 56.85259 290.50955Q58.22759 290.50955 58.88384 291.40018Q59.54009 292.27518 59.555714 294.11893L59.555714 295.52518ZM58.461964 294.0408Q58.461964 292.6658 58.07134 292.0408Q57.69634 291.40018 56.85259 291.40018Q56.024464 291.40018 55.63384 292.0408Q55.25884 292.6658 55.25884 293.96268L55.25884 295.69705Q55.25884 297.07205 55.649464 297.74393Q56.055714 298.40018 56.868214 298.40018Q57.66509 298.40018 58.055714 297.77518Q58.44634 297.15018 58.461964 295.82205L58.461964 294.0408ZM66.55571 295.52518Q66.55571 297.43143 65.89946 298.36893Q65.258835 299.2908 63.868214 299.2908Q62.50884 299.2908 61.85259 298.38455Q61.19634 297.4783 61.16509 295.6658L61.16509 294.2283Q61.16509 292.33768 61.805714 291.43143Q62.461964 290.50955 63.85259 290.50955Q65.227585 290.50955 65.883835 291.40018Q66.540085 292.27518 66.55571 294.11893L66.55571 295.52518ZM65.46196 294.0408Q65.46196 292.6658 65.071335 292.0408Q64.696335 291.40018 63.85259 291.40018Q63.024464 291.40018 62.63384 292.0408Q62.25884 292.6658 62.25884 293.96268L62.25884 295.69705Q62.25884 297.07205 62.649464 297.74393Q63.055714 298.40018 63.868214 298.40018Q64.665085 298.40018 65.05571 297.77518Q65.446335 297.15018 65.46196 295.82205L65.46196 294.0408Z" fill-rule="nonzero"/><path fill="#757575" d="M29.758839 224.33159L28.680714 224.33159L28.680714 217.11284L26.493214 217.90971L26.493214 216.92534L29.602589 215.75346L29.758839 215.75346L29.758839 224.33159ZM38.555714 220.69096Q38.555714 222.59721 37.899464 223.53471Q37.25884 224.45659 35.868214 224.45659Q34.50884 224.45659 33.85259 223.55034Q33.19634 222.64409 33.16509 220.83159L33.16509 219.39409Q33.16509 217.50346 33.805714 216.59721Q34.461964 215.67534 35.85259 215.67534Q37.22759 215.67534 37.88384 216.56596Q38.54009 217.44096 38.555714 219.28471L38.555714 220.69096ZM37.461964 219.20659Q37.461964 217.83159 37.07134 217.20659Q36.69634 216.56596 35.85259 216.56596Q35.024464 216.56596 34.63384 217.20659Q34.25884 217.83159 34.25884 219.12846L34.25884 220.86284Q34.25884 222.23784 34.649464 222.90971Q35.055714 223.56596 35.868214 223.56596Q36.66509 223.56596 37.055714 222.94096Q37.44634 222.31596 37.461964 220.98784L37.461964 219.20659ZM45.555714 220.69096Q45.555714 222.59721 44.899464 223.53471Q44.25884 224.45659 42.868214 224.45659Q41.50884 224.45659 40.85259 223.55034Q40.19634 222.64409 40.16509 220.83159L40.16509 219.39409Q40.16509 217.50346 40.805714 216.59721Q41.461964 215.67534 42.85259 215.67534Q44.22759 215.67534 44.88384 216.56596Q45.54009 217.44096 45.555714 219.28471L45.555714 220.69096ZM44.461964 219.20659Q44.461964 217.83159 44.07134 217.20659Q43.69634 216.56596 42.85259 216.56596Q42.024464 216.56596 41.63384 217.20659Q41.25884 217.83159 41.25884 219.12846L41.25884 220.86284Q41.25884 222.23784 41.649464 222.90971Q42.055714 223.56596 42.868214 223.56596Q43.66509 223.56596 44.055714 222.94096Q44.44634 222.31596 44.461964 220.98784L44.461964 219.20659ZM52.555714 220.69096Q52.555714 222.59721 51.899464 223.53471Q51.25884 224.45659 49.868214 224.45659Q48.50884 224.45659 47.85259 223.55034Q47.19634 222.64409 47.16509 220.83159L47.16509 219.39409Q47.16509 217.50346 47.805714 216.59721Q48.461964 215.67534 49.85259 215.67534Q51.22759 215.67534 51.88384 216.56596Q52.54009 217.44096 52.555714 219.28471L52.555714 220.69096ZM51.461964 219.20659Q51.461964 217.83159 51.07134 217.20659Q50.69634 216.56596 49.85259 216.56596Q49.024464 216.56596 48.63384 217.20659Q48.25884 217.83159 48.25884 219.12846L48.25884 220.86284Q48.25884 222.23784 48.649464 222.90971Q49.055714 223.56596 49.868214 223.56596Q50.66509 223.56596 51.055714 222.94096Q51.44634 222.31596 51.461964 220.98784L51.461964 219.20659ZM59.555714 220.69096Q59.555714 222.59721 58.899464 223.53471Q58.25884 224.45659 56.868214 224.45659Q55.50884 224.45659 54.85259 223.55034Q54.19634 222.64409 54.16509 220.83159L54.16509 219.39409Q54.16509 217.50346 54.805714 216.59721Q55.461964 215.67534 56.85259 215.67534Q58.22759 215.67534 58.88384 216.56596Q59.54009 217.44096 59.555714 219.28471L59.555714 220.69096ZM58.461964 219.20659Q58.461964 217.83159 58.07134 217.20659Q57.69634 216.56596 56.85259 216.56596Q56.024464 216.56596 55.63384 217.20659Q55.25884 217.83159 55.25884 219.12846L55.25884 220.86284Q55.25884 222.23784 55.649464 222.90971Q56.055714 223.56596 56.868214 223.56596Q57.66509 223.56596 58.055714 222.94096Q58.44634 222.31596 58.461964 220.98784L58.461964 219.20659ZM66.55571 220.69096Q66.55571 222.59721 65.89946 223.53471Q65.258835 224.45659 63.868214 224.45659Q62.50884 224.45659 61.85259 223.55034Q61.19634 222.64409 61.16509 220.83159L61.16509 219.39409Q61.16509 217.50346 61.805714 216.59721Q62.461964 215.67534 63.85259 215.67534Q65.227585 215.67534 65.883835 216.56596Q66.540085 217.44096 66.55571 219.28471L66.55571 220.69096ZM65.46196 219.20659Q65.46196 217.83159 65.071335 217.20659Q64.696335 216.56596 63.85259 216.56596Q63.024464 216.56596 62.63384 217.20659Q62.25884 217.83159 62.25884 219.12846L62.25884 220.86284Q62.25884 222.23784 62.649464 222.90971Q63.055714 223.56596 63.868214 223.56596Q64.665085 223.56596 65.05571 222.94096Q65.446335 222.31596 65.46196 220.98784L65.46196 219.20659Z" fill-rule="nonzero"/><path fill="#757575" d="M29.758839 149.49739L28.680714 149.49739L28.680714 142.27864L26.493214 143.07552L26.493214 142.09114L29.602589 140.91927L29.758839 140.91927L29.758839 149.49739ZM33.69634 145.21614L34.13384 140.96614L38.50884 140.96614L38.50884 141.96614L35.055714 141.96614L34.79009 144.29427Q35.430714 143.91927 36.22759 143.91927Q37.38384 143.91927 38.07134 144.70052Q38.75884 145.46614 38.75884 146.77864Q38.75884 148.09114 38.04009 148.85677Q37.336964 149.62239 36.055714 149.62239Q34.930714 149.62239 34.211964 148.99739Q33.493214 148.35677 33.399464 147.24739L34.41509 147.24739Q34.524464 147.98177 34.94634 148.35677Q35.368214 148.73177 36.055714 148.73177Q36.805714 148.73177 37.243214 148.21614Q37.680714 147.70052 37.680714 146.79427Q37.680714 145.93489 37.211964 145.41927Q36.743214 144.90364 35.961964 144.90364Q35.25884 144.90364 34.85259 145.20052L34.57134 145.43489L33.69634 145.21614ZM45.555714 145.85677Q45.555714 147.76302 44.899464 148.70052Q44.25884 149.62239 42.868214 149.62239Q41.50884 149.62239 40.85259 148.71614Q40.19634 147.80989 40.16509 145.99739L40.16509 144.55989Q40.16509 142.66927 40.805714 141.76302Q41.461964 140.84114 42.85259 140.84114Q44.22759 140.84114 44.88384 141.73177Q45.54009 142.60677 45.555714 144.45052L45.555714 145.85677ZM44.461964 144.37239Q44.461964 142.99739 44.07134 142.37239Q43.69634 141.73177 42.85259 141.73177Q42.024464 141.73177 41.63384 142.37239Q41.25884 142.99739 41.25884 144.29427L41.25884 146.02864Q41.25884 147.40364 41.649464 148.07552Q42.055714 148.73177 42.868214 148.73177Q43.66509 148.73177 44.055714 148.10677Q44.44634 147.48177 44.461964 146.15364L44.461964 144.37239ZM52.555714 145.85677Q52.555714 147.76302 51.899464 148.70052Q51.25884 149.62239 49.868214 149.62239Q48.50884 149.62239 47.85259 148.71614Q47.19634 147.80989 47.16509 145.99739L47.16509 144.55989Q47.16509 142.66927 47.805714 141.76302Q48.461964 140.84114 49.85259 140.84114Q51.22759 140.84114 51.88384 141.73177Q52.54009 142.60677 52.555714 144.45052L52.555714 145.85677ZM51.461964 144.37239Q51.461964 142.99739 51.07134 142.37239Q50.69634 141.73177 49.85259 141.73177Q49.024464 141.73177 48.63384 142.37239Q48.25884 142.99739 48.25884 144.29427L48.25884 146.02864Q48.25884 147.40364 48.649464 148.07552Q49.055714 148.73177 49.868214 148.73177Q50.66509 148.73177 51.055714 148.10677Q51.44634 147.48177 51.461964 146.15364L51.461964 144.37239ZM59.555714 145.85677Q59.555714 147.76302 58.899464 148.70052Q58.25884 149.62239 56.868214 149.62239Q55.50884 149.62239 54.85259 148.71614Q54.19634 147.80989 54.16509 145.99739L54.16509 144.55989Q54.16509 142.66927 54.805714 141.76302Q55.461964 140.84114 56.85259 140.84114Q58.22759 140.84114 58.88384 141.73177Q59.54009 142.60677 59.555714 144.45052L59.555714 145.85677ZM58.461964 144.37239Q58.461964 142.99739 58.07134 142.37239Q57.69634 141.73177 56.85259 141.73177Q56.024464 141.73177 55.63384 142.37239Q55.25884 142.99739 55.25884 144.29427L55.25884 146.02864Q55.25884 147.40364 55.649464 148.07552Q56.055714 148.73177 56.868214 148.73177Q57.66509 148.73177 58.055714 148.10677Q58.44634 147.48177 58.461964 146.15364L58.461964 144.37239ZM66.55571 145.85677Q66.55571 147.76302 65.89946 148.70052Q65.258835 149.62239 63.868214 149.62239Q62.50884 149.62239 61.85259 148.71614Q61.19634 147.80989 61.16509 145.99739L61.16509 144.55989Q61.16509 142.66927 61.805714 141.76302Q62.461964 140.84114 63.85259 140.84114Q65.227585 140.84114 65.883835 141.73177Q66.540085 142.60677 66.55571 144.45052L66.55571 145.85677ZM65.46196 144.37239Q65.46196 142.99739 65.071335 142.37239Q64.696335 141.73177 63.85259 141.73177Q63.024464 141.73177 62.63384 142.37239Q62.25884 142.99739 62.25884 144.29427L62.25884 146.02864Q62.25884 147.40364 62.649464 148.07552Q63.055714 148.73177 63.868214 148.73177Q64.665085 148.73177 65.05571 148.10677Q65.446335 147.48177 65.46196 146.15364L65.46196 144.37239Z" fill-rule="nonzero"/><path fill="#757575" d="M31.790089 74.663185L26.196339 74.663185L26.196339 73.881935L29.149464 70.600685Q29.805714 69.850685 30.055714 69.39756Q30.305714 68.92881 30.305714 68.42881Q30.305714 67.756935 29.899464 67.33506Q29.508839 66.89756 28.821339 66.89756Q28.024464 66.89756 27.571339 67.36631Q27.118214 67.819435 27.118214 68.64756L26.040089 68.64756Q26.040089 67.46006 26.790089 66.74131Q27.555714 66.006935 28.821339 66.006935Q30.024464 66.006935 30.711964 66.631935Q31.399464 67.256935 31.399464 68.30381Q31.399464 69.55381 29.790089 71.30381L27.508839 73.77256L31.790089 73.77256L31.790089 74.663185ZM38.555714 71.02256Q38.555714 72.92881 37.899464 73.86631Q37.25884 74.788185 35.868214 74.788185Q34.50884 74.788185 33.85259 73.881935Q33.19634 72.975685 33.16509 71.163185L33.16509 69.725685Q33.16509 67.83506 33.805714 66.92881Q34.461964 66.006935 35.85259 66.006935Q37.22759 66.006935 37.88384 66.89756Q38.54009 67.77256 38.555714 69.61631L38.555714 71.02256ZM37.461964 69.538185Q37.461964 68.163185 37.07134 67.538185Q36.69634 66.89756 35.85259 66.89756Q35.024464 66.89756 34.63384 67.538185Q34.25884 68.163185 34.25884 69.46006L34.25884 71.194435Q34.25884 72.569435 34.649464 73.24131Q35.055714 73.89756 35.868214 73.89756Q36.66509 73.89756 37.055714 73.27256Q37.44634 72.64756 37.461964 71.319435L37.461964 69.538185ZM45.555714 71.02256Q45.555714 72.92881 44.899464 73.86631Q44.25884 74.788185 42.868214 74.788185Q41.50884 74.788185 40.85259 73.881935Q40.19634 72.975685 40.16509 71.163185L40.16509 69.725685Q40.16509 67.83506 40.805714 66.92881Q41.461964 66.006935 42.85259 66.006935Q44.22759 66.006935 44.88384 66.89756Q45.54009 67.77256 45.555714 69.61631L45.555714 71.02256ZM44.461964 69.538185Q44.461964 68.163185 44.07134 67.538185Q43.69634 66.89756 42.85259 66.89756Q42.024464 66.89756 41.63384 67.538185Q41.25884 68.163185 41.25884 69.46006L41.25884 71.194435Q41.25884 72.569435 41.649464 73.24131Q42.055714 73.89756 42.868214 73.89756Q43.66509 73.89756 44.055714 73.27256Q44.44634 72.64756 44.461964 71.319435L44.461964 69.538185ZM52.555714 71.02256Q52.555714 72.92881 51.899464 73.86631Q51.25884 74.788185 49.868214 74.788185Q48.50884 74.788185 47.85259 73.881935Q47.19634 72.975685 47.16509 71.163185L47.16509 69.725685Q47.16509 67.83506 47.805714 66.92881Q48.461964 66.006935 49.85259 66.006935Q51.22759 66.006935 51.88384 66.89756Q52.54009 67.77256 52.555714 69.61631L52.555714 71.02256ZM51.461964 69.538185Q51.461964 68.163185 51.07134 67.538185Q50.69634 66.89756 49.85259 66.89756Q49.024464 66.89756 48.63384 67.538185Q48.25884 68.163185 48.25884 69.46006L48.25884 71.194435Q48.25884 72.569435 48.649464 73.24131Q49.055714 73.89756 49.868214 73.89756Q50.66509 73.89756 51.055714 73.27256Q51.44634 72.64756 51.461964 71.319435L51.461964 69.538185ZM59.555714 71.02256Q59.555714 72.92881 58.899464 73.86631Q58.25884 74.788185 56.868214 74.788185Q55.50884 74.788185 54.85259 73.881935Q54.19634 72.975685 54.16509 71.163185L54.16509 69.725685Q54.16509 67.83506 54.805714 66.92881Q55.461964 66.006935 56.85259 66.006935Q58.22759 66.006935 58.88384 66.89756Q59.54009 67.77256 59.555714 69.61631L59.555714 71.02256ZM58.461964 69.538185Q58.461964 68.163185 58.07134 67.538185Q57.69634 66.89756 56.85259 66.89756Q56.024464 66.89756 55.63384 67.538185Q55.25884 68.163185 55.25884 69.46006L55.25884 71.194435Q55.25884 72.569435 55.649464 73.24131Q56.055714 73.89756 56.868214 73.89756Q57.66509 73.89756 58.055714 73.27256Q58.44634 72.64756 58.461964 71.319435L58.461964 69.538185ZM66.55571 71.02256Q66.55571 72.92881 65.89946 73.86631Q65.258835 74.788185 63.868214 74.788185Q62.50884 74.788185 61.85259 73.881935Q61.19634 72.975685 61.16509 71.163185L61.16509 69.725685Q61.16509 67.83506 61.805714 66.92881Q62.461964 66.006935 63.85259 66.006935Q65.227585 66.006935 65.883835 66.89756Q66.540085 67.77256 66.55571 69.61631L66.55571 71.02256ZM65.46196 69.538185Q65.46196 68.163185 65.071335 67.538185Q64.696335 66.89756 63.85259 66.89756Q63.024464 66.89756 62.63384 67.538185Q62.25884 68.163185 62.25884 69.46006L62.25884 71.194435Q62.25884 72.569435 62.649464 73.24131Q63.055714 73.89756 63.868214 73.89756Q64.665085 73.89756 65.05571 73.27256Q65.446335 72.64756 65.46196 71.319435L65.46196 69.538185Z" fill-rule="nonzero"/><path fill="#757575" d="M111.79537 387.5L111.79537 378.96875L114.21725 378.96875Q115.32662 378.96875 116.17037 379.46875Q117.02975 379.95312 117.4985 380.85938Q117.96725 381.76562 117.96725 382.95312L117.96725 383.48438Q117.96725 384.70312 117.4985 385.60938Q117.04537 386.51562 116.17037 387.0Q115.311 387.48438 114.17037 387.5L111.79537 387.5ZM112.92037 379.89062L112.92037 386.57812L114.10787 386.57812Q115.40475 386.57812 116.1235 385.78125Q116.85787 384.96875 116.85787 383.46875L116.85787 382.96875Q116.85787 381.51562 116.17037 380.71875Q115.4985 379.90625 114.23287 379.89062L112.92037 379.89062ZM124.51412 385.26562L120.936 385.26562L120.13912 387.5L118.98287 387.5L122.23287 378.96875L123.21725 378.96875L126.48287 387.5L125.32662 387.5L124.51412 385.26562ZM121.27975 384.34375L124.186 384.34375L122.73287 380.35938L121.27975 384.34375ZM132.6235 383.5625L128.92038 383.5625L128.92038 386.57812L133.21725 386.57812L133.21725 387.5L127.79537 387.5L127.79537 378.96875L133.17038 378.96875L133.17038 379.89062L128.92038 379.89062L128.92038 382.64062L132.6235 382.64062L132.6235 383.5625ZM136.63913 384.8125L136.811 385.9375L137.04538 384.92188L138.73288 378.96875L139.686 378.96875L141.32663 384.92188L141.561 385.95312L141.7485 384.79688L143.07663 378.96875L144.20163 378.96875L142.13913 387.5L141.10788 387.5L139.34225 381.28125L139.21725 380.625L139.07663 381.28125L137.26413 387.5L136.23288 387.5L134.17038 378.96875L135.29538 378.96875L136.63913 384.8125ZM152.35788 383.51562Q152.35788 384.76562 151.936 385.70312Q151.51413 386.625 150.73288 387.125Q149.96725 387.625 148.936 387.625Q147.936 387.625 147.15475 387.125Q146.3735 386.625 145.936 385.71875Q145.51413 384.79688 145.4985 383.57812L145.4985 382.96875Q145.4985 381.73438 145.92038 380.79688Q146.35788 379.85938 147.13913 379.35938Q147.92038 378.84375 148.936 378.84375Q149.95163 378.84375 150.73288 379.34375Q151.51413 379.84375 151.936 380.78125Q152.35788 381.71875 152.35788 382.96875L152.35788 383.51562ZM151.2485 382.95312Q151.2485 381.4375 150.63913 380.625Q150.02975 379.8125 148.936 379.8125Q147.85788 379.8125 147.2485 380.625Q146.63913 381.4375 146.6235 382.875L146.6235 383.51562Q146.6235 384.98438 147.23288 385.82812Q147.85788 386.65625 148.936 386.65625Q150.02975 386.65625 150.6235 385.875Q151.23288 385.07812 151.2485 383.59375L151.2485 382.95312ZM160.35788 383.51562Q160.35788 384.76562 159.936 385.70312Q159.51413 386.625 158.73288 387.125Q157.96725 387.625 156.936 387.625Q155.936 387.625 155.15475 387.125Q154.3735 386.625 153.936 385.71875Q153.51413 384.79688 153.4985 383.57812L153.4985 382.96875Q153.4985 381.73438 153.92038 380.79688Q154.35788 379.85938 155.13913 379.35938Q155.92038 378.84375 156.936 378.84375Q157.95163 378.84375 158.73288 379.34375Q159.51413 379.84375 159.936 380.78125Q160.35788 381.71875 160.35788 382.96875L160.35788 383.51562ZM159.2485 382.95312Q159.2485 381.4375 158.63913 380.625Q158.02975 379.8125 156.936 379.8125Q155.85788 379.8125 155.2485 380.625Q154.63913 381.4375 154.6235 382.875L154.6235 383.51562Q154.6235 384.98438 155.23288 385.82812Q155.85788 386.65625 156.936 386.65625Q158.02975 386.65625 158.6235 385.875Q159.23288 385.07812 159.2485 383.59375L159.2485 382.95312Z" fill-rule="nonzero"/><path fill="#757575" d="M118.936 401.57812L122.98287 401.57812L122.98287 402.5L117.79537 402.5L117.79537 393.96875L118.936 393.96875L118.936 401.57812ZM128.51413 400.26562L124.936 400.26562L124.13912 402.5L122.98287 402.5L126.23287 393.96875L127.21725 393.96875L130.48288 402.5L129.32663 402.5L128.51413 400.26562ZM125.27975 399.34375L128.186 399.34375L126.73287 395.35938L125.27975 399.34375ZM138.35788 402.5L137.23288 402.5L132.936 395.92188L132.936 402.5L131.79538 402.5L131.79538 393.96875L132.936 393.96875L137.23288 400.57812L137.23288 393.96875L138.35788 393.96875L138.35788 402.5ZM147.35788 398.51562Q147.35788 399.76562 146.936 400.70312Q146.51413 401.625 145.73288 402.125Q144.96725 402.625 143.936 402.625Q142.936 402.625 142.15475 402.125Q141.3735 401.625 140.936 400.71875Q140.51413 399.79688 140.4985 398.57812L140.4985 397.96875Q140.4985 396.73438 140.92038 395.79688Q141.35788 394.85938 142.13913 394.35938Q142.92038 393.84375 143.936 393.84375Q144.95163 393.84375 145.73288 394.34375Q146.51413 394.84375 146.936 395.78125Q147.35788 396.71875 147.35788 397.96875L147.35788 398.51562ZM146.2485 397.95312Q146.2485 396.4375 145.63913 395.625Q145.02975 394.8125 143.936 394.8125Q142.85788 394.8125 142.2485 395.625Q141.63913 396.4375 141.6235 397.875L141.6235 398.51562Q141.6235 399.98438 142.23288 400.82812Q142.85788 401.65625 143.936 401.65625Q145.02975 401.65625 145.6235 400.875Q146.23288 400.07812 146.2485 398.59375L146.2485 397.95312ZM151.311 398.70312Q149.8735 398.28125 149.20163 397.67188Q148.54538 397.0625 148.54538 396.17188Q148.54538 395.17188 149.34225 394.51562Q150.15475 393.84375 151.45163 393.84375Q152.32663 393.84375 153.01413 394.1875Q153.70163 394.53125 154.07663 395.125Q154.46725 395.71875 154.46725 396.4375L153.32663 396.4375Q153.32663 395.65625 152.82663 395.21875Q152.34225 394.78125 151.45163 394.78125Q150.6235 394.78125 150.15475 395.15625Q149.686 395.51562 149.686 396.15625Q149.686 396.6875 150.1235 397.04688Q150.57663 397.40625 151.63913 397.70312Q152.70163 398.0 153.29538 398.35938Q153.90475 398.71875 154.186 399.20312Q154.48288 399.6875 154.48288 400.32812Q154.48288 401.375 153.67038 402.0Q152.85788 402.625 151.51413 402.625Q150.6235 402.625 149.85788 402.28125Q149.10788 401.9375 148.686 401.35938Q148.27975 400.76562 148.27975 400.03125L149.40475 400.03125Q149.40475 400.79688 149.98288 401.25Q150.561 401.70312 151.51413 401.70312Q152.40475 401.70312 152.8735 401.34375Q153.34225 400.96875 153.34225 400.34375Q153.34225 399.71875 152.90475 399.375Q152.46725 399.03125 151.311 398.70312Z" fill-rule="nonzero"/><path fill="#757575" d="M191.94615 386.0L194.38365 378.96875L195.61803 378.96875L192.44615 387.5L191.46178 387.5L188.30553 378.96875L189.52428 378.96875L191.94615 386.0ZM203.68053 383.51562Q203.68053 384.76562 203.25865 385.70312Q202.83678 386.625 202.05553 387.125Q201.2899 387.625 200.25865 387.625Q199.25865 387.625 198.4774 387.125Q197.69615 386.625 197.25865 385.71875Q196.83678 384.79688 196.82115 383.57812L196.82115 382.96875Q196.82115 381.73438 197.24303 380.79688Q197.68053 379.85938 198.46178 379.35938Q199.24303 378.84375 200.25865 378.84375Q201.27428 378.84375 202.05553 379.34375Q202.83678 379.84375 203.25865 380.78125Q203.68053 381.71875 203.68053 382.96875L203.68053 383.51562ZM202.57115 382.95312Q202.57115 381.4375 201.96178 380.625Q201.3524 379.8125 200.25865 379.8125Q199.18053 379.8125 198.57115 380.625Q197.96178 381.4375 197.94615 382.875L197.94615 383.51562Q197.94615 384.98438 198.55553 385.82812Q199.18053 386.65625 200.25865 386.65625Q201.3524 386.65625 201.94615 385.875Q202.55553 385.07812 202.57115 383.59375L202.57115 382.95312ZM206.25865 386.57812L210.30553 386.57812L210.30553 387.5L205.11803 387.5L205.11803 378.96875L206.25865 378.96875L206.25865 386.57812ZM213.2899 383.53125L212.24303 384.60938L212.24303 387.5L211.11803 387.5L211.11803 378.96875L212.24303 378.96875L212.24303 383.1875L216.0399 378.96875L217.39928 378.96875L214.0399 382.73438L217.6649 387.5L216.32115 387.5L213.2899 383.53125ZM221.63365 383.70312Q220.19615 383.28125 219.52428 382.67188Q218.86803 382.0625 218.86803 381.17188Q218.86803 380.17188 219.6649 379.51562Q220.4774 378.84375 221.77428 378.84375Q222.64928 378.84375 223.33678 379.1875Q224.02428 379.53125 224.39928 380.125Q224.7899 380.71875 224.7899 381.4375L223.64928 381.4375Q223.64928 380.65625 223.14928 380.21875Q222.6649 379.78125 221.77428 379.78125Q220.94615 379.78125 220.4774 380.15625Q220.00865 380.51562 220.00865 381.15625Q220.00865 381.6875 220.44615 382.04688Q220.89928 382.40625 221.96178 382.70312Q223.02428 383.0 223.61803 383.35938Q224.2274 383.71875 224.50865 384.20312Q224.80553 384.6875 224.80553 385.32812Q224.80553 386.375 223.99303 387.0Q223.18053 387.625 221.83678 387.625Q220.94615 387.625 220.18053 387.28125Q219.43053 386.9375 219.00865 386.35938Q218.6024 385.76562 218.6024 385.03125L219.7274 385.03125Q219.7274 385.79688 220.30553 386.25Q220.88365 386.70312 221.83678 386.70312Q222.7274 386.70312 223.19615 386.34375Q223.6649 385.96875 223.6649 385.34375Q223.6649 384.71875 223.2274 384.375Q222.7899 384.03125 221.63365 383.70312ZM227.96178 384.8125L228.13365 385.9375L228.36803 384.92188L230.05553 378.96875L231.00865 378.96875L232.64928 384.92188L232.88365 385.95312L233.07115 384.79688L234.39928 378.96875L235.52428 378.96875L233.46178 387.5L232.43053 387.5L230.6649 381.28125L230.5399 380.625L230.39928 381.28125L228.58678 387.5L227.55553 387.5L225.49303 378.96875L226.61803 378.96875L227.96178 384.8125ZM241.83678 385.26562L238.25865 385.26562L237.46178 387.5L236.30553 387.5L239.55553 378.96875L240.5399 378.96875L243.80553 387.5L242.64928 387.5L241.83678 385.26562ZM238.6024 384.34375L241.50865 384.34375L240.05553 380.35938L238.6024 384.34375ZM251.43053 386.375Q250.99303 387.0 250.21178 387.3125Q249.43053 387.625 248.39928 387.625Q247.36803 387.625 246.55553 387.14062Q245.74303 386.64062 245.30553 385.73438Q244.86803 384.82812 244.8524 383.64062L244.8524 382.90625Q244.8524 380.96875 245.74303 379.90625Q246.64928 378.84375 248.27428 378.84375Q249.61803 378.84375 250.43053 379.53125Q251.24303 380.21875 251.43053 381.46875L250.30553 381.46875Q249.9774 379.78125 248.2899 379.78125Q247.14928 379.78125 246.57115 380.57812Q245.99303 381.35938 245.9774 382.875L245.9774 383.5625Q245.9774 385.0 246.63365 385.85938Q247.2899 386.70312 248.4149 386.70312Q249.0399 386.70312 249.50865 386.5625Q249.99303 386.42188 250.30553 386.07812L250.30553 384.17188L248.33678 384.17188L248.33678 383.25L251.43053 383.25L251.43053 386.375ZM257.94617 383.5625L254.24303 383.5625L254.24303 386.57812L258.53992 386.57812L258.53992 387.5L253.11803 387.5L253.11803 378.96875L258.49304 378.96875L258.49304 379.89062L254.24303 379.89062L254.24303 382.64062L257.94617 382.64062L257.94617 383.5625ZM266.68054 387.5L265.55554 387.5L261.25867 380.92188L261.25867 387.5L260.11804 387.5L260.11804 378.96875L261.25867 378.96875L265.55554 385.57812L265.55554 378.96875L266.68054 378.96875L266.68054 387.5Z" fill-rule="nonzero"/><path fill="#757575" d="M194.02428 394.89062L191.27428 394.89062L191.27428 402.5L190.1649 402.5L190.1649 394.89062L187.4149 394.89062L187.4149 393.96875L194.02428 393.96875L194.02428 394.89062ZM198.25865 399.04688L196.24303 399.04688L196.24303 402.5L195.11803 402.5L195.11803 393.96875L197.94615 393.96875Q199.38365 393.96875 200.14928 394.625Q200.93053 395.28125 200.93053 396.53125Q200.93053 397.32812 200.49303 397.92188Q200.07115 398.51562 199.30553 398.8125L201.30553 402.42188L201.30553 402.5L200.1024 402.5L198.25865 399.04688ZM196.24303 398.125L197.9774 398.125Q198.82115 398.125 199.30553 397.70312Q199.80553 397.26562 199.80553 396.53125Q199.80553 395.75 199.33678 395.32812Q198.86803 394.90625 197.9774 394.89062L196.24303 394.89062L196.24303 398.125ZM206.83678 400.26562L203.25865 400.26562L202.46178 402.5L201.30553 402.5L204.55553 393.96875L205.5399 393.96875L208.80553 402.5L207.64928 402.5L206.83678 400.26562ZM203.6024 399.34375L206.50865 399.34375L205.05553 395.35938L203.6024 399.34375ZM216.68053 402.5L215.55553 402.5L211.25865 395.92188L211.25865 402.5L210.11803 402.5L210.11803 393.96875L211.25865 393.96875L215.55553 400.57812L215.55553 393.96875L216.68053 393.96875L216.68053 402.5ZM221.63365 398.70312Q220.19615 398.28125 219.52428 397.67188Q218.86803 397.0625 218.86803 396.17188Q218.86803 395.17188 219.6649 394.51562Q220.4774 393.84375 221.77428 393.84375Q222.64928 393.84375 223.33678 394.1875Q224.02428 394.53125 224.39928 395.125Q224.7899 395.71875 224.7899 396.4375L223.64928 396.4375Q223.64928 395.65625 223.14928 395.21875Q222.6649 394.78125 221.77428 394.78125Q220.94615 394.78125 220.4774 395.15625Q220.00865 395.51562 220.00865 396.15625Q220.00865 396.6875 220.44615 397.04688Q220.89928 397.40625 221.96178 397.70312Q223.02428 398.0 223.61803 398.35938Q224.2274 398.71875 224.50865 399.20312Q224.80553 399.6875 224.80553 400.32812Q224.80553 401.375 223.99303 402.0Q223.18053 402.625 221.83678 402.625Q220.94615 402.625 220.18053 402.28125Q219.43053 401.9375 219.00865 401.35938Q218.6024 400.76562 218.6024 400.03125L219.7274 400.03125Q219.7274 400.79688 220.30553 401.25Q220.88365 401.70312 221.83678 401.70312Q222.7274 401.70312 223.19615 401.34375Q223.6649 400.96875 223.6649 400.34375Q223.6649 399.71875 223.2274 399.375Q222.7899 399.03125 221.63365 398.70312ZM227.24303 399.15625L227.24303 402.5L226.11803 402.5L226.11803 393.96875L229.27428 393.96875Q230.6649 393.96875 231.46178 394.6875Q232.25865 395.39062 232.25865 396.57812Q232.25865 397.8125 231.4774 398.48438Q230.71178 399.15625 229.25865 399.15625L227.24303 399.15625ZM227.24303 398.23438L229.27428 398.23438Q230.18053 398.23438 230.64928 397.8125Q231.13365 397.39062 231.13365 396.59375Q231.13365 395.82812 230.64928 395.375Q230.18053 394.90625 229.33678 394.89062L227.24303 394.89062L227.24303 398.23438ZM240.68053 398.51562Q240.68053 399.76562 240.25865 400.70312Q239.83678 401.625 239.05553 402.125Q238.2899 402.625 237.25865 402.625Q236.25865 402.625 235.4774 402.125Q234.69615 401.625 234.25865 400.71875Q233.83678 399.79688 233.82115 398.57812L233.82115 397.96875Q233.82115 396.73438 234.24303 395.79688Q234.68053 394.85938 235.46178 394.35938Q236.24303 393.84375 237.25865 393.84375Q238.27428 393.84375 239.05553 394.34375Q239.83678 394.84375 240.25865 395.78125Q240.68053 396.71875 240.68053 397.96875L240.68053 398.51562ZM239.57115 397.95312Q239.57115 396.4375 238.96178 395.625Q238.3524 394.8125 237.25865 394.8125Q236.18053 394.8125 235.57115 395.625Q234.96178 396.4375 234.94615 397.875L234.94615 398.51562Q234.94615 399.98438 235.55553 400.82812Q236.18053 401.65625 237.25865 401.65625Q238.3524 401.65625 238.94615 400.875Q239.55553 400.07812 239.57115 398.59375L239.57115 397.95312ZM245.25865 399.04688L243.24303 399.04688L243.24303 402.5L242.11803 402.5L242.11803 393.96875L244.94615 393.96875Q246.38365 393.96875 247.14928 394.625Q247.93053 395.28125 247.93053 396.53125Q247.93053 397.32812 247.49303 397.92188Q247.07115 398.51562 246.30553 398.8125L248.30553 402.42188L248.30553 402.5L247.1024 402.5L245.25865 399.04688ZM243.24303 398.125L244.9774 398.125Q245.82115 398.125 246.30553 397.70312Q246.80553 397.26562 246.80553 396.53125Q246.80553 395.75 246.33678 395.32812Q245.86803 394.90625 244.9774 394.89062L243.24303 394.89062L243.24303 398.125ZM255.02428 394.89062L252.27428 394.89062L252.27428 402.5L251.1649 402.5L251.1649 394.89062L248.4149 394.89062L248.4149 393.96875L255.02428 393.96875L255.02428 394.89062ZM260.94617 398.5625L257.24304 398.5625L257.24304 401.57812L261.53992 401.57812L261.53992 402.5L256.11804 402.5L256.11804 393.96875L261.49304 393.96875L261.49304 394.89062L257.24304 394.89062L257.24304 397.64062L260.94617 397.64062L260.94617 398.5625ZM266.25867 399.04688L264.24304 399.04688L264.24304 402.5L263.11804 402.5L263.11804 393.96875L265.94617 393.96875Q267.38367 393.96875 268.1493 394.625Q268.93054 395.28125 268.93054 396.53125Q268.93054 397.32812 268.49304 397.92188Q268.07117 398.51562 267.30554 398.8125L269.30554 402.42188L269.30554 402.5L268.10242 402.5L266.25867 399.04688ZM264.24304 398.125L265.97742 398.125Q266.82117 398.125 267.30554 397.70312Q267.80554 397.26562 267.80554 396.53125Q267.80554 395.75 267.3368 395.32812Q266.86804 394.90625 265.97742 394.89062L264.24304 394.89062L264.24304 398.125Z" fill-rule="nonzero"/><path fill="#757575" d="M298.5813 384.04688L296.56567 384.04688L296.56567 387.5L295.44067 387.5L295.44067 378.96875L298.2688 378.96875Q299.7063 378.96875 300.47192 379.625Q301.25317 380.28125 301.25317 381.53125Q301.25317 382.32812 300.81567 382.92188Q300.3938 383.51562 299.62817 383.8125L301.62817 387.42188L301.62817 387.5L300.42505 387.5L298.5813 384.04688ZM296.56567 383.125L298.30005 383.125Q299.1438 383.125 299.62817 382.70312Q300.12817 382.26562 300.12817 381.53125Q300.12817 380.75 299.65942 380.32812Q299.19067 379.90625 298.30005 379.89062L296.56567 379.89062L296.56567 383.125ZM307.2688 383.5625L303.56567 383.5625L303.56567 386.57812L307.86255 386.57812L307.86255 387.5L302.44067 387.5L302.44067 378.96875L307.81567 378.96875L307.81567 379.89062L303.56567 379.89062L303.56567 382.64062L307.2688 382.64062L307.2688 383.5625ZM316.00317 387.5L314.87817 387.5L310.5813 380.92188L310.5813 387.5L309.44067 387.5L309.44067 378.96875L310.5813 378.96875L314.87817 385.57812L314.87817 378.96875L316.00317 378.96875L316.00317 387.5ZM323.15942 385.26562L319.5813 385.26562L318.78442 387.5L317.62817 387.5L320.87817 378.96875L321.86255 378.96875L325.12817 387.5L323.97192 387.5L323.15942 385.26562ZM319.92505 384.34375L322.8313 384.34375L321.37817 380.35938L319.92505 384.34375ZM332.4563 378.96875L332.4563 384.76562Q332.44067 385.96875 331.69067 386.75Q330.94067 387.51562 329.65942 387.60938L329.34692 387.625Q327.9563 387.625 327.11255 386.875Q326.28442 386.10938 326.28442 384.78125L326.28442 378.96875L327.3938 378.96875L327.3938 384.75Q327.3938 385.67188 327.8938 386.1875Q328.40942 386.70312 329.34692 386.70312Q330.31567 386.70312 330.81567 386.1875Q331.31567 385.67188 331.31567 384.75L331.31567 378.96875L332.4563 378.96875ZM335.5813 386.57812L339.62817 386.57812L339.62817 387.5L334.44067 387.5L334.44067 378.96875L335.5813 378.96875L335.5813 386.57812ZM346.34692 379.89062L343.59692 379.89062L343.59692 387.5L342.48755 387.5L342.48755 379.89062L339.73755 379.89062L339.73755 378.96875L346.34692 378.96875L346.34692 379.89062Z" fill-rule="nonzero"/><path fill="#757575" d="M299.11255 398.53125L298.06567 399.60938L298.06567 402.5L296.94067 402.5L296.94067 393.96875L298.06567 393.96875L298.06567 398.1875L301.86255 393.96875L303.22192 393.96875L299.86255 397.73438L303.48755 402.5L302.1438 402.5L299.11255 398.53125ZM309.65942 400.26562L306.0813 400.26562L305.28442 402.5L304.12817 402.5L307.37817 393.96875L308.36255 393.96875L311.62817 402.5L310.47192 402.5L309.65942 400.26562ZM306.42505 399.34375L309.3313 399.34375L307.87817 395.35938L306.42505 399.34375ZM319.50317 402.5L318.37817 402.5L314.0813 395.92188L314.0813 402.5L312.94067 402.5L312.94067 393.96875L314.0813 393.96875L318.37817 400.57812L318.37817 393.96875L319.50317 393.96875L319.50317 402.5ZM328.25317 401.375Q327.81567 402.0 327.03442 402.3125Q326.25317 402.625 325.22192 402.625Q324.19067 402.625 323.37817 402.14062Q322.56567 401.64062 322.12817 400.73438Q321.69067 399.82812 321.67505 398.64062L321.67505 397.90625Q321.67505 395.96875 322.56567 394.90625Q323.47192 393.84375 325.09692 393.84375Q326.44067 393.84375 327.25317 394.53125Q328.06567 395.21875 328.25317 396.46875L327.12817 396.46875Q326.80005 394.78125 325.11255 394.78125Q323.97192 394.78125 323.3938 395.57812Q322.81567 396.35938 322.80005 397.875L322.80005 398.5625Q322.80005 400.0 323.4563 400.85938Q324.11255 401.70312 325.23755 401.70312Q325.86255 401.70312 326.3313 401.5625Q326.81567 401.42188 327.12817 401.07812L327.12817 399.17188L325.15942 399.17188L325.15942 398.25L328.25317 398.25L328.25317 401.375ZM336.50317 398.51562Q336.50317 399.76562 336.0813 400.70312Q335.65942 401.625 334.87817 402.125Q334.11255 402.625 333.0813 402.625Q332.0813 402.625 331.30005 402.125Q330.5188 401.625 330.0813 400.71875Q329.65942 399.79688 329.6438 398.57812L329.6438 397.96875Q329.6438 396.73438 330.06567 395.79688Q330.50317 394.85938 331.28442 394.35938Q332.06567 393.84375 333.0813 393.84375Q334.09692 393.84375 334.87817 394.34375Q335.65942 394.84375 336.0813 395.78125Q336.50317 396.71875 336.50317 397.96875L336.50317 398.51562ZM335.3938 397.95312Q335.3938 396.4375 334.78442 395.625Q334.17505 394.8125 333.0813 394.8125Q332.00317 394.8125 331.3938 395.625Q330.78442 396.4375 330.7688 397.875L330.7688 398.51562Q330.7688 399.98438 331.37817 400.82812Q332.00317 401.65625 333.0813 401.65625Q334.17505 401.65625 334.7688 400.875Q335.37817 400.07812 335.3938 398.59375L335.3938 397.95312ZM344.50317 398.51562Q344.50317 399.76562 344.0813 400.70312Q343.65942 401.625 342.87817 402.125Q342.11255 402.625 341.0813 402.625Q340.0813 402.625 339.30005 402.125Q338.5188 401.625 338.0813 400.71875Q337.65942 399.79688 337.6438 398.57812L337.6438 397.96875Q337.6438 396.73438 338.06567 395.79688Q338.50317 394.85938 339.28442 394.35938Q340.06567 393.84375 341.0813 393.84375Q342.09692 393.84375 342.87817 394.34375Q343.65942 394.84375 344.0813 395.78125Q344.50317 396.71875 344.50317 397.96875L344.50317 398.51562ZM343.3938 397.95312Q343.3938 396.4375 342.78442 395.625Q342.17505 394.8125 341.0813 394.8125Q340.00317 394.8125 339.3938 395.625Q338.78442 396.4375 338.7688 397.875L338.7688 398.51562Q338.7688 399.98438 339.37817 400.82812Q340.00317 401.65625 341.0813 401.65625Q342.17505 401.65625 342.7688 400.875Q343.37817 400.07812 343.3938 398.59375L343.3938 397.95312Z" fill-rule="nonzero"/><path fill="#757575" d="M386.54456 384.79688Q386.3883 386.14062 385.54456 386.89062Q384.7008 387.625 383.31018 387.625Q381.79456 387.625 380.8883 386.54688Q379.98206 385.45312 379.98206 383.625L379.98206 382.8125Q379.98206 381.625 380.40393 380.71875Q380.8258 379.8125 381.60706 379.32812Q382.3883 378.84375 383.40393 378.84375Q384.7633 378.84375 385.5758 379.60938Q386.40393 380.375 386.54456 381.70312L385.41956 381.70312Q385.2633 380.6875 384.77893 380.23438Q384.29456 379.78125 383.40393 379.78125Q382.3258 379.78125 381.71643 380.57812Q381.10706 381.375 381.10706 382.84375L381.10706 383.67188Q381.10706 385.0625 381.68518 385.89062Q382.2633 386.70312 383.31018 386.70312Q384.24768 386.70312 384.74768 386.28125Q385.24768 385.84375 385.41956 384.79688L386.54456 384.79688ZM394.8258 387.5L393.7008 387.5L393.7008 383.5625L389.3883 383.5625L389.3883 387.5L388.2633 387.5L388.2633 378.96875L389.3883 378.96875L389.3883 382.64062L393.7008 382.64062L393.7008 378.96875L394.8258 378.96875L394.8258 387.5ZM402.09143 383.5625L398.3883 383.5625L398.3883 386.57812L402.68518 386.57812L402.68518 387.5L397.2633 387.5L397.2633 378.96875L402.6383 378.96875L402.6383 379.89062L398.3883 379.89062L398.3883 382.64062L402.09143 382.64062L402.09143 383.5625ZM407.09143 386.0L409.52893 378.96875L410.7633 378.96875L407.59143 387.5L406.60706 387.5L403.4508 378.96875L404.66956 378.96875L407.09143 386.0ZM415.40393 384.04688L413.3883 384.04688L413.3883 387.5L412.2633 387.5L412.2633 378.96875L415.09143 378.96875Q416.52893 378.96875 417.29456 379.625Q418.0758 380.28125 418.0758 381.53125Q418.0758 382.32812 417.6383 382.92188Q417.21643 383.51562 416.4508 383.8125L418.4508 387.42188L418.4508 387.5L417.24768 387.5L415.40393 384.04688ZM413.3883 383.125L415.12268 383.125Q415.96643 383.125 416.4508 382.70312Q416.9508 382.26562 416.9508 381.53125Q416.9508 380.75 416.48206 380.32812Q416.0133 379.90625 415.12268 379.89062L413.3883 379.89062L413.3883 383.125ZM425.8258 383.51562Q425.8258 384.76562 425.40393 385.70312Q424.98206 386.625 424.2008 387.125Q423.43518 387.625 422.40393 387.625Q421.40393 387.625 420.62268 387.125Q419.84143 386.625 419.40393 385.71875Q418.98206 384.79688 418.96643 383.57812L418.96643 382.96875Q418.96643 381.73438 419.3883 380.79688Q419.8258 379.85938 420.60706 379.35938Q421.3883 378.84375 422.40393 378.84375Q423.41956 378.84375 424.2008 379.34375Q424.98206 379.84375 425.40393 380.78125Q425.8258 381.71875 425.8258 382.96875L425.8258 383.51562ZM424.71643 382.95312Q424.71643 381.4375 424.10706 380.625Q423.49768 379.8125 422.40393 379.8125Q421.3258 379.8125 420.71643 380.625Q420.10706 381.4375 420.09143 382.875L420.09143 383.51562Q420.09143 384.98438 420.7008 385.82812Q421.3258 386.65625 422.40393 386.65625Q423.49768 386.65625 424.09143 385.875Q424.7008 385.07812 424.71643 383.59375L424.71643 382.95312ZM428.40393 386.57812L432.4508 386.57812L432.4508 387.5L427.2633 387.5L427.2633 378.96875L428.40393 378.96875L428.40393 386.57812ZM438.09143 383.5625L434.3883 383.5625L434.3883 386.57812L438.68518 386.57812L438.68518 387.5L433.2633 387.5L433.2633 378.96875L438.6383 378.96875L438.6383 379.89062L434.3883 379.89062L434.3883 382.64062L438.09143 382.64062L438.09143 383.5625ZM446.16956 379.89062L443.41956 379.89062L443.41956 387.5L442.31018 387.5L442.31018 379.89062L439.56018 379.89062L439.56018 378.96875L446.16956 378.96875L446.16956 379.89062Z" fill-rule="nonzero"/><path fill="#757575" d="M402.98206 400.26562L399.40393 400.26562L398.60706 402.5L397.4508 402.5L400.7008 393.96875L401.68518 393.96875L404.9508 402.5L403.79456 402.5L402.98206 400.26562ZM399.74768 399.34375L402.65393 399.34375L401.2008 395.35938L399.74768 399.34375ZM409.09143 401.0L411.52893 393.96875L412.7633 393.96875L409.59143 402.5L408.60706 402.5L405.4508 393.96875L406.66956 393.96875L409.09143 401.0ZM419.09143 398.5625L415.3883 398.5625L415.3883 401.57812L419.68518 401.57812L419.68518 402.5L414.2633 402.5L414.2633 393.96875L419.6383 393.96875L419.6383 394.89062L415.3883 394.89062L415.3883 397.64062L419.09143 397.64062L419.09143 398.5625ZM427.8258 398.51562Q427.8258 399.76562 427.40393 400.70312Q426.98206 401.625 426.2008 402.125Q425.43518 402.625 424.40393 402.625Q423.40393 402.625 422.62268 402.125Q421.84143 401.625 421.40393 400.71875Q420.98206 399.79688 420.96643 398.57812L420.96643 397.96875Q420.96643 396.73438 421.3883 395.79688Q421.8258 394.85938 422.60706 394.35938Q423.3883 393.84375 424.40393 393.84375Q425.41956 393.84375 426.2008 394.34375Q426.98206 394.84375 427.40393 395.78125Q427.8258 396.71875 427.8258 397.96875L427.8258 398.51562ZM426.71643 397.95312Q426.71643 396.4375 426.10706 395.625Q425.49768 394.8125 424.40393 394.8125Q423.3258 394.8125 422.71643 395.625Q422.10706 396.4375 422.09143 397.875L422.09143 398.51562Q422.09143 399.98438 422.7008 400.82812Q423.3258 401.65625 424.40393 401.65625Q425.49768 401.65625 426.09143 400.875Q426.7008 400.07812 426.71643 398.59375L426.71643 397.95312Z" fill-rule="nonzero"/><path fill="#757575" d="M468.9141 386.0L471.3516 378.96875L472.58597 378.96875L469.4141 387.5L468.42972 387.5L465.27347 378.96875L466.49222 378.96875L468.9141 386.0ZM480.64847 383.51562Q480.64847 384.76562 480.2266 385.70312Q479.80472 386.625 479.02347 387.125Q478.25784 387.625 477.2266 387.625Q476.2266 387.625 475.44534 387.125Q474.6641 386.625 474.2266 385.71875Q473.80472 384.79688 473.7891 383.57812L473.7891 382.96875Q473.7891 381.73438 474.21097 380.79688Q474.64847 379.85938 475.42972 379.35938Q476.21097 378.84375 477.2266 378.84375Q478.24222 378.84375 479.02347 379.34375Q479.80472 379.84375 480.2266 380.78125Q480.64847 381.71875 480.64847 382.96875L480.64847 383.51562ZM479.5391 382.95312Q479.5391 381.4375 478.92972 380.625Q478.32034 379.8125 477.2266 379.8125Q476.14847 379.8125 475.5391 380.625Q474.92972 381.4375 474.9141 382.875L474.9141 383.51562Q474.9141 384.98438 475.52347 385.82812Q476.14847 386.65625 477.2266 386.65625Q478.32034 386.65625 478.9141 385.875Q479.52347 385.07812 479.5391 383.59375L479.5391 382.95312ZM483.2266 386.57812L487.27347 386.57812L487.27347 387.5L482.08597 387.5L482.08597 378.96875L483.2266 378.96875L483.2266 386.57812ZM490.25784 383.53125L489.21097 384.60938L489.21097 387.5L488.08597 387.5L488.08597 378.96875L489.21097 378.96875L489.21097 383.1875L493.00784 378.96875L494.36722 378.96875L491.00784 382.73438L494.63284 387.5L493.2891 387.5L490.25784 383.53125ZM498.6016 383.70312Q497.1641 383.28125 496.49222 382.67188Q495.83597 382.0625 495.83597 381.17188Q495.83597 380.17188 496.63284 379.51562Q497.44534 378.84375 498.74222 378.84375Q499.61722 378.84375 500.30472 379.1875Q500.99222 379.53125 501.36722 380.125Q501.75784 380.71875 501.75784 381.4375L500.61722 381.4375Q500.61722 380.65625 500.11722 380.21875Q499.63284 379.78125 498.74222 379.78125Q497.9141 379.78125 497.44534 380.15625Q496.9766 380.51562 496.9766 381.15625Q496.9766 381.6875 497.4141 382.04688Q497.86722 382.40625 498.92972 382.70312Q499.99222 383.0 500.58597 383.35938Q501.19534 383.71875 501.4766 384.20312Q501.77347 384.6875 501.77347 385.32812Q501.77347 386.375 500.96097 387.0Q500.14847 387.625 498.80472 387.625Q497.9141 387.625 497.14847 387.28125Q496.39847 386.9375 495.9766 386.35938Q495.57034 385.76562 495.57034 385.03125L496.69534 385.03125Q496.69534 385.79688 497.27347 386.25Q497.8516 386.70312 498.80472 386.70312Q499.69534 386.70312 500.1641 386.34375Q500.63284 385.96875 500.63284 385.34375Q500.63284 384.71875 500.19534 384.375Q499.75784 384.03125 498.6016 383.70312ZM504.92972 384.8125L505.1016 385.9375L505.33597 384.92188L507.02347 378.96875L507.9766 378.96875L509.61722 384.92188L509.8516 385.95312L510.0391 384.79688L511.36722 378.96875L512.4922 378.96875L510.42972 387.5L509.39847 387.5L507.63284 381.28125L507.50784 380.625L507.36722 381.28125L505.55472 387.5L504.52347 387.5L502.46097 378.96875L503.58597 378.96875L504.92972 384.8125ZM518.8047 385.26562L515.22656 385.26562L514.4297 387.5L513.27344 387.5L516.52344 378.96875L517.5078 378.96875L520.77344 387.5L519.6172 387.5L518.8047 385.26562ZM515.5703 384.34375L518.47656 384.34375L517.02344 380.35938L515.5703 384.34375ZM528.39844 386.375Q527.96094 387.0 527.1797 387.3125Q526.39844 387.625 525.3672 387.625Q524.33594 387.625 523.52344 387.14062Q522.71094 386.64062 522.27344 385.73438Q521.83594 384.82812 521.8203 383.64062L521.8203 382.90625Q521.8203 380.96875 522.71094 379.90625Q523.6172 378.84375 525.2422 378.84375Q526.58594 378.84375 527.39844 379.53125Q528.21094 380.21875 528.39844 381.46875L527.27344 381.46875Q526.9453 379.78125 525.2578 379.78125Q524.1172 379.78125 523.53906 380.57812Q522.96094 381.35938 522.9453 382.875L522.9453 383.5625Q522.9453 385.0 523.60156 385.85938Q524.2578 386.70312 525.3828 386.70312Q526.0078 386.70312 526.47656 386.5625Q526.96094 386.42188 527.27344 386.07812L527.27344 384.17188L525.3047 384.17188L525.3047 383.25L528.39844 383.25L528.39844 386.375ZM534.91406 383.5625L531.21094 383.5625L531.21094 386.57812L535.5078 386.57812L535.5078 387.5L530.08594 387.5L530.08594 378.96875L535.46094 378.96875L535.46094 379.89062L531.21094 379.89062L531.21094 382.64062L534.91406 382.64062L534.91406 383.5625ZM543.64844 387.5L542.52344 387.5L538.22656 380.92188L538.22656 387.5L537.08594 387.5L537.08594 378.96875L538.22656 378.96875L542.52344 385.57812L542.52344 378.96875L543.64844 378.96875L543.64844 387.5Z" fill-rule="nonzero"/><path fill="#757575" d="M484.71097 399.15625L484.71097 402.5L483.58597 402.5L483.58597 393.96875L486.74222 393.96875Q488.13284 393.96875 488.92972 394.6875Q489.7266 395.39062 489.7266 396.57812Q489.7266 397.8125 488.94534 398.48438Q488.17972 399.15625 486.7266 399.15625L484.71097 399.15625ZM484.71097 398.23438L486.74222 398.23438Q487.64847 398.23438 488.11722 397.8125Q488.6016 397.39062 488.6016 396.59375Q488.6016 395.82812 488.11722 395.375Q487.64847 394.90625 486.80472 394.89062L484.71097 394.89062L484.71097 398.23438ZM496.30472 400.26562L492.7266 400.26562L491.92972 402.5L490.77347 402.5L494.02347 393.96875L495.00784 393.96875L498.27347 402.5L497.11722 402.5L496.30472 400.26562ZM493.07034 399.34375L495.9766 399.34375L494.52347 395.35938L493.07034 399.34375ZM502.1016 398.70312Q500.6641 398.28125 499.99222 397.67188Q499.33597 397.0625 499.33597 396.17188Q499.33597 395.17188 500.13284 394.51562Q500.94534 393.84375 502.24222 393.84375Q503.11722 393.84375 503.80472 394.1875Q504.49222 394.53125 504.86722 395.125Q505.25784 395.71875 505.25784 396.4375L504.11722 396.4375Q504.11722 395.65625 503.61722 395.21875Q503.13284 394.78125 502.24222 394.78125Q501.4141 394.78125 500.94534 395.15625Q500.4766 395.51562 500.4766 396.15625Q500.4766 396.6875 500.9141 397.04688Q501.36722 397.40625 502.42972 397.70312Q503.49222 398.0 504.08597 398.35938Q504.69534 398.71875 504.9766 399.20312Q505.27347 399.6875 505.27347 400.32812Q505.27347 401.375 504.46097 402.0Q503.64847 402.625 502.30472 402.625Q501.4141 402.625 500.64847 402.28125Q499.89847 401.9375 499.4766 401.35938Q499.07034 400.76562 499.07034 400.03125L500.19534 400.03125Q500.19534 400.79688 500.77347 401.25Q501.3516 401.70312 502.30472 401.70312Q503.19534 401.70312 503.6641 401.34375Q504.13284 400.96875 504.13284 400.34375Q504.13284 399.71875 503.69534 399.375Q503.25784 399.03125 502.1016 398.70312ZM509.1016 398.70312Q507.6641 398.28125 506.99222 397.67188Q506.33597 397.0625 506.33597 396.17188Q506.33597 395.17188 507.13284 394.51562Q507.94534 393.84375 509.24222 393.84375Q510.11722 393.84375 510.80472 394.1875Q511.49222 394.53125 511.86722 395.125Q512.2578 395.71875 512.2578 396.4375L511.11722 396.4375Q511.11722 395.65625 510.61722 395.21875Q510.13284 394.78125 509.24222 394.78125Q508.4141 394.78125 507.94534 395.15625Q507.4766 395.51562 507.4766 396.15625Q507.4766 396.6875 507.9141 397.04688Q508.36722 397.40625 509.42972 397.70312Q510.49222 398.0 511.08597 398.35938Q511.69534 398.71875 511.9766 399.20312Q512.27344 399.6875 512.27344 400.32812Q512.27344 401.375 511.46097 402.0Q510.64847 402.625 509.30472 402.625Q508.4141 402.625 507.64847 402.28125Q506.89847 401.9375 506.4766 401.35938Q506.07034 400.76562 506.07034 400.03125L507.19534 400.03125Q507.19534 400.79688 507.77347 401.25Q508.3516 401.70312 509.30472 401.70312Q510.19534 401.70312 510.6641 401.34375Q511.13284 400.96875 511.13284 400.34375Q511.13284 399.71875 510.69534 399.375Q510.25784 399.03125 509.1016 398.70312ZM518.3047 400.26562L514.72656 400.26562L513.9297 402.5L512.77344 402.5L516.02344 393.96875L517.0078 393.96875L520.27344 402.5L519.1172 402.5L518.3047 400.26562ZM515.0703 399.34375L517.97656 399.34375L516.52344 395.35938L515.0703 399.34375ZM527.4922 394.89062L524.7422 394.89062L524.7422 402.5L523.6328 402.5L523.6328 394.89062L520.8828 394.89062L520.8828 393.96875L527.4922 393.96875L527.4922 394.89062Z" fill-rule="nonzero"/><path fill="#757575" d="M189.1875 27.209373L185.53125 27.209373L185.53125 37.35L184.03125 37.35L184.03125 27.209373L180.39062 27.209373L180.39062 25.974998L189.1875 25.974998L189.1875 27.209373ZM190.71875 33.0375Q190.71875 31.803123 191.20312 30.818748Q191.6875 29.818748 192.5625 29.287498Q193.4375 28.740623 194.54688 28.740623Q196.28125 28.740623 197.34375 29.943748Q198.40625 31.131248 198.40625 33.115623L198.40625 33.209373Q198.40625 34.44375 197.9375 35.428123Q197.46875 36.4125 196.57812 36.959373Q195.70312 37.50625 194.5625 37.50625Q192.84375 37.50625 191.78125 36.31875Q190.71875 35.115623 190.71875 33.146873L190.71875 33.0375ZM192.17188 33.209373Q192.17188 34.615623 192.8125 35.475Q193.46875 36.31875 194.5625 36.31875Q195.67188 36.31875 196.3125 35.459373Q196.96875 34.6 196.96875 33.0375Q196.96875 31.646873 196.29688 30.787498Q195.64062 29.928123 194.54688 29.928123Q193.48438 29.928123 192.82812 30.787498Q192.17188 31.631248 192.17188 33.209373ZM207.01562 37.35L205.5625 37.35L205.5625 30.084373L201.67188 30.084373L201.67188 37.35L200.21875 37.35L200.21875 28.896873L207.01562 28.896873L207.01562 37.35ZM213.60938 31.646873L214.1875 25.974998L220.01562 25.974998L220.01562 27.303123L215.42188 27.303123L215.07812 30.412498Q215.90625 29.912498 216.96875 29.912498Q218.53125 29.912498 219.4375 30.943748Q220.35938 31.974998 220.35938 33.725Q220.35938 35.475 219.40625 36.490623Q218.45312 37.50625 216.75 37.50625Q215.25 37.50625 214.29688 36.678123Q213.34375 35.834373 213.20312 34.35L214.57812 34.35Q214.70312 35.334373 215.26562 35.834373Q215.82812 36.31875 216.75 36.31875Q217.76562 36.31875 218.32812 35.63125Q218.90625 34.94375 218.90625 33.740623Q218.90625 32.6 218.28125 31.912498Q217.67188 31.209373 216.64062 31.209373Q215.6875 31.209373 215.15625 31.631248L214.76562 31.943748L213.60938 31.646873ZM231.3125 37.35Q231.1875 37.1 231.10938 36.459373Q230.10938 37.50625 228.70312 37.50625Q227.45312 37.50625 226.65625 36.803123Q225.85938 36.084373 225.85938 35.00625Q225.85938 33.678123 226.85938 32.959373Q227.85938 32.225 229.6875 32.225L231.09375 32.225L231.09375 31.553123Q231.09375 30.803123 230.64062 30.349998Q230.1875 29.896873 229.29688 29.896873Q228.53125 29.896873 228.0 30.287498Q227.48438 30.678123 227.48438 31.240623L226.03125 31.240623Q226.03125 30.599998 226.46875 30.021873Q226.92188 29.428123 227.6875 29.084373Q228.46875 28.740623 229.39062 28.740623Q230.84375 28.740623 231.67188 29.474998Q232.5 30.193748 232.53125 31.474998L232.53125 35.365623Q232.53125 36.5375 232.82812 37.225L232.82812 37.35L231.3125 37.35ZM228.92188 36.240623Q229.59375 36.240623 230.20312 35.896873Q230.8125 35.5375 231.09375 34.975L231.09375 33.240623L229.95312 33.240623Q227.29688 33.240623 227.29688 34.803123Q227.29688 35.475 227.75 35.865623Q228.20312 36.240623 228.92188 36.240623ZM235.23438 37.35L235.23438 28.896873L238.53125 28.896873Q240.21875 28.896873 241.10938 29.490623Q242.01562 30.068748 242.01562 31.209373Q242.01562 31.803123 241.65625 32.271873Q241.3125 32.740623 240.625 32.990623Q241.39062 33.178123 241.85938 33.709373Q242.32812 34.225 242.32812 34.94375Q242.32812 36.115623 241.46875 36.740623Q240.60938 37.35 239.04688 37.35L235.23438 37.35ZM236.67188 33.63125L236.67188 36.178123L239.0625 36.178123Q239.96875 36.178123 240.42188 35.85Q240.875 35.50625 240.875 34.896873Q240.875 33.63125 239.01562 33.63125L236.67188 33.63125ZM236.67188 32.475L238.54688 32.475Q240.57812 32.475 240.57812 31.287498Q240.57812 30.099998 238.65625 30.068748L236.67188 30.068748L236.67188 32.475ZM250.375 30.068748L247.54688 30.068748L247.54688 37.35L246.09375 37.35L246.09375 30.068748L243.3125 30.068748L243.3125 28.896873L250.375 28.896873L250.375 30.068748ZM251.71875 33.0375Q251.71875 31.803123 252.20312 30.818748Q252.6875 29.818748 253.5625 29.287498Q254.4375 28.740623 255.54688 28.740623Q257.28125 28.740623 258.34375 29.943748Q259.40625 31.131248 259.40625 33.115623L259.40625 33.209373Q259.40625 34.44375 258.9375 35.428123Q258.46875 36.4125 257.57812 36.959373Q256.70312 37.50625 255.5625 37.50625Q253.84375 37.50625 252.78125 36.31875Q251.71875 35.115623 251.71875 33.146873L251.71875 33.0375ZM253.17188 33.209373Q253.17188 34.615623 253.8125 35.475Q254.46875 36.31875 255.5625 36.31875Q256.67188 36.31875 257.3125 35.459373Q257.96875 34.6 257.96875 33.0375Q257.96875 31.646873 257.29688 30.787498Q256.64062 29.928123 255.54688 29.928123Q254.48438 29.928123 253.82812 30.787498Q253.17188 31.631248 253.17188 33.209373ZM265.96875 35.428123L268.84375 28.896873L270.64062 28.896873L270.64062 37.35L269.20312 37.35L269.20312 31.193748L266.46875 37.35L265.46875 37.35L262.67188 31.068748L262.67188 37.35L261.23438 37.35L261.23438 28.896873L263.10938 28.896873L265.96875 35.428123ZM272.71875 33.0375Q272.71875 31.803123 273.20312 30.818748Q273.6875 29.818748 274.5625 29.287498Q275.4375 28.740623 276.54688 28.740623Q278.28125 28.740623 279.34375 29.943748Q280.40625 31.131248 280.40625 33.115623L280.40625 33.209373Q280.40625 34.44375 279.9375 35.428123Q279.46875 36.4125 278.57812 36.959373Q277.70312 37.50625 276.5625 37.50625Q274.84375 37.50625 273.78125 36.31875Q272.71875 35.115623 272.71875 33.146873L272.71875 33.0375ZM274.17188 33.209373Q274.17188 34.615623 274.8125 35.475Q275.46875 36.31875 276.5625 36.31875Q277.67188 36.31875 278.3125 35.459373Q278.96875 34.6 278.96875 33.0375Q278.96875 31.646873 278.29688 30.787498Q277.64062 29.928123 276.54688 29.928123Q275.48438 29.928123 274.82812 30.787498Q274.17188 31.631248 274.17188 33.209373ZM285.8125 29.381248Q287.40625 29.381248 288.35938 30.443748Q289.3125 31.506248 289.3125 33.25625L289.3125 33.38125Q289.3125 34.584373 288.84375 35.521873Q288.39062 36.459373 287.53125 36.990623Q286.67188 37.50625 285.54688 37.50625Q283.84375 37.50625 282.79688 36.365623Q281.76562 35.225 281.76562 33.31875L281.76562 32.615623Q281.76562 29.943748 282.75 28.381248Q283.73438 26.803123 285.67188 26.459373Q286.76562 26.271873 287.14062 25.990623Q287.53125 25.709373 287.53125 25.209373L288.71875 25.209373Q288.71875 26.193748 288.26562 26.740623Q287.82812 27.287498 286.85938 27.506248L285.78125 27.756248Q284.5 28.053123 283.84375 28.787498Q283.20312 29.506248 283.01562 30.709373Q284.15625 29.381248 285.8125 29.381248ZM285.53125 30.568748Q284.46875 30.568748 283.84375 31.287498Q283.21875 31.990623 283.21875 33.25625L283.21875 33.38125Q283.21875 34.740623 283.84375 35.5375Q284.46875 36.334373 285.54688 36.334373Q286.625 36.334373 287.25 35.5375Q287.875 34.740623 287.875 33.209373Q287.875 32.00625 287.23438 31.287498Q286.60938 30.568748 285.53125 30.568748ZM292.67188 37.35L291.21875 37.35L291.21875 28.896873L292.67188 28.896873L292.67188 37.35ZM291.10938 26.646873Q291.10938 26.303123 291.3125 26.068748Q291.53125 25.818748 291.95312 25.818748Q292.375 25.818748 292.59375 26.068748Q292.8125 26.303123 292.8125 26.662498Q292.8125 27.006248 292.59375 27.240623Q292.375 27.474998 291.95312 27.474998Q291.53125 27.474998 291.3125 27.240623Q291.10938 27.006248 291.10938 26.646873ZM302.03125 28.896873L302.03125 37.35L300.57812 37.35L300.57812 30.084373L297.70312 30.084373L297.53125 33.25625Q297.39062 35.428123 296.79688 36.365623Q296.20312 37.303123 294.92188 37.35L294.34375 37.35L294.34375 36.06875L294.76562 36.0375Q295.46875 35.959373 295.76562 35.225Q296.07812 34.490623 296.15625 32.50625L296.3125 28.896873L302.03125 28.896873ZM307.60938 37.50625Q305.89062 37.50625 304.8125 36.38125Q303.73438 35.240623 303.73438 33.35L303.73438 33.084373Q303.73438 31.834373 304.20312 30.849998Q304.6875 29.849998 305.54688 29.303123Q306.42188 28.740623 307.42188 28.740623Q309.07812 28.740623 309.98438 29.834373Q310.90625 30.912498 310.90625 32.928123L310.90625 33.5375L305.17188 33.5375Q305.20312 34.7875 305.90625 35.553123Q306.60938 36.31875 307.6875 36.31875Q308.45312 36.31875 308.98438 36.00625Q309.51562 35.69375 309.90625 35.178123L310.79688 35.865623Q309.73438 37.50625 307.60938 37.50625ZM307.42188 29.928123Q306.54688 29.928123 305.95312 30.568748Q305.35938 31.193748 305.21875 32.35L309.45312 32.35L309.45312 32.240623Q309.39062 31.131248 308.85938 30.537498Q308.32812 29.928123 307.42188 29.928123ZM317.5625 28.896873L319.01562 28.896873L319.01562 37.35L317.5625 37.35L317.5625 31.178123L313.67188 37.35L312.21875 37.35L312.21875 28.896873L313.67188 28.896873L313.67188 35.06875L317.5625 28.896873ZM317.6875 25.662498Q317.6875 26.615623 317.04688 27.193748Q316.40625 27.756248 315.35938 27.756248Q314.3125 27.756248 313.65625 27.178123Q313.01562 26.599998 313.01562 25.662498L314.1875 25.662498Q314.1875 26.209373 314.48438 26.521873Q314.78125 26.834373 315.35938 26.834373Q315.90625 26.834373 316.20312 26.537498Q316.51562 26.224998 316.51562 25.662498L317.6875 25.662498ZM325.04688 32.725Q325.04688 30.959373 325.51562 29.334373Q325.98438 27.709373 326.92188 26.381248Q327.85938 25.053123 328.875 24.506248L329.17188 25.459373Q328.03125 26.334373 327.29688 28.131248Q326.5625 29.928123 326.5 32.1625L326.48438 32.81875Q326.48438 35.834373 327.59375 38.06875Q328.25 39.396873 329.17188 40.146873L328.875 41.021873Q327.82812 40.44375 326.89062 39.084373Q325.04688 36.428123 325.04688 32.725ZM337.40625 37.35L329.95312 37.35L329.95312 36.303123L333.89062 31.928123Q334.76562 30.943748 335.09375 30.318748Q335.42188 29.693748 335.42188 29.037498Q335.42188 28.146873 334.875 27.584373Q334.34375 27.006248 333.45312 27.006248Q332.375 27.006248 331.76562 27.615623Q331.17188 28.224998 331.17188 29.318748L329.73438 29.318748Q329.73438 27.756248 330.73438 26.787498Q331.75 25.818748 333.45312 25.818748Q335.03125 25.818748 335.95312 26.646873Q336.875 27.474998 336.875 28.865623Q336.875 30.537498 334.73438 32.865623L331.6875 36.1625L337.40625 36.1625L337.40625 37.35ZM346.07812 32.490623Q346.07812 35.0375 345.20312 36.271873Q344.34375 37.50625 342.5 37.50625Q340.6875 37.50625 339.8125 36.303123Q338.9375 35.084373 338.90625 32.69375L338.90625 30.756248Q338.90625 28.256248 339.76562 27.037498Q340.64062 25.818748 342.48438 25.818748Q344.32812 25.818748 345.1875 26.990623Q346.0625 28.162498 346.07812 30.615623L346.07812 32.490623ZM344.64062 30.521873Q344.64062 28.678123 344.125 27.849998Q343.60938 27.006248 342.48438 27.006248Q341.375 27.006248 340.85938 27.849998Q340.35938 28.678123 340.34375 30.412498L340.34375 32.725Q340.34375 34.56875 340.875 35.44375Q341.42188 36.31875 342.5 36.31875Q343.57812 36.31875 344.09375 35.490623Q344.60938 34.6625 344.64062 32.88125L344.64062 30.521873ZM352.70312 37.35L351.25 37.35L351.25 27.709373L348.32812 28.787498L348.32812 27.474998L352.46875 25.912498L352.70312 25.912498L352.70312 37.35ZM359.04688 30.959373L360.14062 30.959373Q361.15625 30.943748 361.73438 30.428123Q362.32812 29.896873 362.32812 29.006248Q362.32812 27.006248 360.34375 27.006248Q359.40625 27.006248 358.84375 27.537498Q358.28125 28.068748 358.28125 28.959373L356.84375 28.959373Q356.84375 27.599998 357.82812 26.709373Q358.8125 25.818748 360.34375 25.818748Q361.95312 25.818748 362.85938 26.678123Q363.78125 27.521873 363.78125 29.037498Q363.78125 29.771873 363.29688 30.474998Q362.8125 31.162498 361.98438 31.506248Q362.92188 31.803123 363.4375 32.490623Q363.95312 33.178123 363.95312 34.178123Q363.95312 35.709373 362.95312 36.615623Q361.95312 37.50625 360.34375 37.50625Q358.75 37.50625 357.73438 36.646873Q356.73438 35.771873 356.73438 34.35L358.1875 34.35Q358.1875 35.240623 358.76562 35.7875Q359.35938 36.31875 360.34375 36.31875Q361.39062 36.31875 361.9375 35.771873Q362.5 35.225 362.5 34.209373Q362.5 33.209373 361.89062 32.678123Q361.28125 32.146873 360.14062 32.13125L359.04688 32.13125L359.04688 30.959373ZM369.10938 33.1L365.29688 33.1L365.29688 31.928123L369.10938 31.928123L369.10938 33.1ZM377.40625 37.35L369.95312 37.35L369.95312 36.303123L373.89062 31.928123Q374.76562 30.943748 375.09375 30.318748Q375.42188 29.693748 375.42188 29.037498Q375.42188 28.146873 374.875 27.584373Q374.34375 27.006248 373.45312 27.006248Q372.375 27.006248 371.76562 27.615623Q371.17188 28.224998 371.17188 29.318748L369.73438 29.318748Q369.73438 27.756248 370.73438 26.787498Q371.75 25.818748 373.45312 25.818748Q375.03125 25.818748 375.95312 26.646873Q376.875 27.474998 376.875 28.865623Q376.875 30.537498 374.73438 32.865623L371.6875 36.1625L377.40625 36.1625L377.40625 37.35ZM386.07812 32.490623Q386.07812 35.0375 385.20312 36.271873Q384.34375 37.50625 382.5 37.50625Q380.6875 37.50625 379.8125 36.303123Q378.9375 35.084373 378.90625 32.69375L378.90625 30.756248Q378.90625 28.256248 379.76562 27.037498Q380.64062 25.818748 382.48438 25.818748Q384.32812 25.818748 385.1875 26.990623Q386.0625 28.162498 386.07812 30.615623L386.07812 32.490623ZM384.64062 30.521873Q384.64062 28.678123 384.125 27.849998Q383.60938 27.006248 382.48438 27.006248Q381.375 27.006248 380.85938 27.849998Q380.35938 28.678123 380.34375 30.412498L380.34375 32.725Q380.34375 34.56875 380.875 35.44375Q381.42188 36.31875 382.5 36.31875Q383.57812 36.31875 384.09375 35.490623Q384.60938 34.6625 384.64062 32.88125L384.64062 30.521873ZM392.70312 37.35L391.25 37.35L391.25 27.709373L388.32812 28.787498L388.32812 27.474998L392.46875 25.912498L392.70312 25.912498L392.70312 37.35ZM402.48438 32.35Q402.03125 32.88125 401.40625 33.209373Q400.78125 33.5375 400.03125 33.5375Q399.04688 33.5375 398.3125 33.053123Q397.57812 32.56875 397.17188 31.693748Q396.78125 30.818748 396.78125 29.756248Q396.78125 28.615623 397.21875 27.709373Q397.65625 26.787498 398.45312 26.303123Q399.25 25.818748 400.3125 25.818748Q402.0 25.818748 402.96875 27.084373Q403.9375 28.334373 403.9375 30.521873L403.9375 30.943748Q403.9375 34.25625 402.625 35.7875Q401.3125 37.31875 398.67188 37.365623L398.39062 37.365623L398.39062 36.13125L398.6875 36.13125Q400.48438 36.1 401.4375 35.209373Q402.40625 34.303123 402.48438 32.35ZM400.26562 32.35Q400.98438 32.35 401.59375 31.912498Q402.21875 31.459373 402.5 30.803123L402.5 30.224998Q402.5 28.803123 401.875 27.912498Q401.26562 27.021873 400.3125 27.021873Q399.35938 27.021873 398.78125 27.756248Q398.20312 28.474998 398.20312 29.678123Q398.20312 30.834373 398.76562 31.599998Q399.32812 32.35 400.26562 32.35ZM409.4375 32.803123Q409.4375 34.553123 408.96875 36.1625Q408.51562 37.75625 407.57812 39.1Q406.64062 40.459373 405.60938 41.021873L405.29688 40.146873Q406.5 39.225 407.23438 37.2875Q407.96875 35.334373 407.98438 32.959373L407.98438 32.709373Q407.98438 31.068748 407.64062 29.662498Q407.29688 28.256248 406.67188 27.146873Q406.0625 26.021873 405.29688 25.396873L405.60938 24.506248Q406.64062 25.084373 407.5625 26.428123Q408.5 27.756248 408.96875 29.365623Q409.4375 30.974998 409.4375 32.803123Z" fill-rule="nonzero"/></svg>